<?xml version="1.0" standalone="no"?>
<!DOCTYPE svg PUBLIC "-//W3C//DTD SVG 20010904//EN"
 "http://www.w3.org/TR/2001/REC-SVG-20010904/DTD/svg10.dtd">
<svg version="1.0" xmlns="http://www.w3.org/2000/svg"
 width="500.000000pt" height="500.000000pt" viewBox="0 0 500.000000 500.000000"
 preserveAspectRatio="xMidYMid meet">
<metadata>
Created by potrace 1.11, written by Peter Selinger 2001-2013
</metadata>
<g transform="translate(0.000000,500.000000) scale(0.100000,-0.100000)"
fill="#000000" stroke="none">
<path d="M0 2500 l0 -2500 2500 0 2500 0 0 2500 0 2500 -2500 0 -2500 0 0
-2500z m2751 1667 c188 -49 363 -152 514 -302 106 -104 165 -179 246 -313 49
-80 68 -101 121 -137 91 -61 174 -155 248 -282 48 -83 71 -113 90 -118 39 -10
130 -65 173 -104 46 -41 63 -73 78 -140 12 -59 0 -91 -34 -91 -20 1 -20 2 -5
11 17 9 17 12 -1 47 -23 45 -59 79 -125 121 -45 28 -58 31 -131 31 -106 0
-167 -19 -237 -75 -42 -34 -66 -63 -89 -110 -39 -80 -37 -118 4 -56 21 32 32
40 40 32 17 -17 34 -13 40 9 3 12 -1 24 -11 30 -16 9 -15 11 3 26 37 30 120
64 156 64 20 0 61 -5 92 -11 l57 -12 -1 -46 c0 -39 -20 -128 -54 -241 -7 -23
-4 -22 32 13 61 58 64 43 3 -18 l-54 -55 59 -60 c33 -33 55 -60 49 -60 -5 0
-34 25 -64 55 -50 50 -56 54 -67 38 -7 -9 -13 -34 -13 -55 0 -21 -4 -38 -10
-38 -5 0 -10 9 -10 20 0 16 -8 11 -38 -23 -37 -41 -39 -46 -56 -167 -30 -214
-103 -467 -180 -618 -18 -35 -22 -52 -14 -52 12 0 323 56 858 154 135 24 247
42 249 40 6 -6 -129 -506 -140 -518 -10 -11 -70 -22 -1024 -191 -1625 -286
-2901 -502 -2912 -492 -7 8 41 475 50 484 3 3 93 20 199 38 229 40 453 79 750
131 l217 38 -92 96 c-149 152 -228 265 -321 460 -129 269 -181 515 -174 822 1
91 1 165 -1 163 -2 -3 -24 -53 -48 -112 -25 -59 -69 -166 -98 -238 l-54 -130
-1 273 0 272 38 0 c36 0 38 2 55 49 16 46 58 93 130 146 22 16 33 39 53 115
30 113 102 299 151 390 219 402 520 646 886 716 110 21 299 12 418 -19z m973
-3243 c22 -8 20 -24 -3 -24 -22 0 -44 -49 -60 -135 -13 -70 -14 -148 -2 -141
4 3 3 -12 -3 -34 -6 -23 -16 -40 -25 -40 -12 0 -13 18 -8 108 6 107 14 150 43
230 15 41 26 48 58 36z m-510 -80 c16 -6 23 -25 9 -23 -25 4 -34 -8 -52 -66
-11 -36 -23 -96 -25 -133 -3 -37 -3 -58 0 -48 10 32 56 96 69 96 20 0 37 -28
30 -50 -9 -27 -39 -27 -32 0 7 27 -7 25 -22 -4 -11 -19 -10 -28 2 -52 23 -44
64 -84 87 -84 23 0 26 -13 6 -29 -21 -17 -48 0 -87 54 -18 24 -36 42 -40 39
-5 -2 -11 -20 -15 -39 -3 -20 -12 -35 -20 -35 -30 0 -7 243 32 340 16 39 27
46 58 34z m352 -4 c26 -10 27 -12 22 -78 -7 -88 -36 -178 -70 -215 -26 -27
-33 -29 -75 -24 -82 9 -100 58 -68 182 9 32 25 74 36 92 19 30 25 33 54 27 24
-4 34 -2 38 10 7 19 25 20 63 6z m554 -86 c0 -24 4 -44 9 -44 5 0 1 -20 -8
-45 -26 -73 -40 -58 -34 38 l5 82 -21 -25 c-11 -14 -31 -53 -43 -87 -31 -86
-50 -84 -42 5 3 37 8 73 10 81 4 11 2 12 -11 1 -8 -7 -15 -8 -15 -2 0 17 29
35 46 28 12 -5 15 -14 10 -38 l-6 -31 26 39 c31 45 42 54 61 47 8 -3 13 -22
13 -49z m-181 -39 c-8 -30 -8 -49 -2 -54 14 -9 -5 -73 -20 -68 -7 2 -14 19
-17 38 l-5 34 -19 -43 c-14 -31 -25 -42 -42 -42 -20 0 -23 5 -26 63 -3 39 1
72 9 90 19 38 37 35 30 -5 -16 -90 -19 -128 -10 -128 10 0 73 127 73 146 0 6
5 15 12 22 21 21 29 -4 17 -53z m-1356 34 l21 -12 -21 -8 c-27 -10 -60 -109
-69 -207 l-6 -67 21 41 c33 64 58 86 81 74 32 -17 24 -106 -17 -175 -10 -17
-14 -18 -37 -5 -31 16 -35 34 -6 25 17 -5 23 0 35 29 17 40 20 106 5 106 -13
0 -55 -84 -70 -138 -15 -56 -34 -49 -38 13 -6 97 46 335 73 335 4 0 16 -5 28
-11z m1195 -16 c-4 -33 -28 -44 -28 -13 0 19 -3 20 -15 10 -13 -10 -12 -16 2
-48 9 -21 18 -48 20 -62 6 -36 -25 -62 -69 -58 l-33 4 35 10 c43 12 49 37 21
89 -24 44 -18 63 23 81 44 19 48 17 44 -13z m-1488 -93 c13 -9 13 -12 -2 -21
-20 -11 -33 -58 -43 -146 -5 -50 -3 -62 7 -58 10 4 13 -4 10 -35 -5 -46 -16
-57 -39 -39 -13 11 -15 29 -10 104 l5 90 -35 -74 c-19 -41 -36 -89 -38 -108
-1 -18 -5 -36 -8 -40 -9 -8 -38 17 -32 27 4 7 -44 101 -60 118 -2 2 -10 -20
-19 -50 -10 -34 -12 -56 -6 -62 14 -14 12 -26 -5 -26 -8 0 -19 -9 -25 -20 -6
-11 -16 -17 -25 -14 -20 8 -19 17 8 57 13 19 29 60 36 92 13 56 13 57 -15 86
-39 41 -61 45 -84 17 -21 -26 -27 -10 -9 25 25 46 46 47 94 6 36 -32 42 -28
36 20 -2 7 4 11 11 9 8 -3 13 -21 13 -49 0 -30 8 -56 26 -84 14 -22 30 -48 35
-57 7 -14 22 10 72 112 35 72 69 130 75 130 7 0 19 -5 27 -10z m776 -25 c7
-41 -8 -65 -41 -65 -18 0 -25 -7 -30 -31 -12 -52 9 -58 50 -14 41 45 46 36 10
-18 -42 -60 -85 -45 -85 30 0 52 26 120 48 126 35 10 41 6 48 -28z m-650 -20
c-9 -36 -24 -23 -18 15 3 21 8 28 15 21 5 -5 7 -21 3 -36z m-46 0 c0 -13 -4
-27 -10 -30 -6 -4 -10 8 -10 30 0 22 4 34 10 30 6 -3 10 -17 10 -30z m578 -9
c3 -28 0 -37 -10 -33 -7 2 -12 12 -12 21 1 9 -2 16 -7 16 -8 0 -49 -121 -49
-147 0 -8 -7 -13 -17 -11 -15 3 -17 12 -15 48 2 25 6 53 9 64 3 12 1 16 -6 12
-14 -9 -14 -3 1 29 6 14 18 25 26 25 11 0 13 -9 8 -37 -6 -38 -6 -38 15 10 27
59 52 61 57 3z m-173 -1 c11 -1 20 -3 21 -4 0 0 -2 -21 -6 -46 -4 -25 -3 -42
2 -39 5 4 6 -10 2 -33 -9 -51 -13 -56 -31 -41 -10 8 -13 23 -10 45 3 18 4 33
3 33 -2 0 -17 -23 -35 -51 -35 -57 -64 -63 -69 -15 -7 59 55 174 87 161 9 -4
25 -8 36 -10z m-331 -62 c-4 -10 -8 -40 -10 -68 -1 -27 -2 -60 -3 -72 -1 -25
-26 -31 -34 -10 -3 7 -3 26 -1 43 4 24 1 22 -21 -19 -21 -38 -31 -48 -48 -45
-20 3 -22 9 -24 63 -2 59 12 115 28 115 15 0 18 -17 8 -54 -6 -20 -9 -53 -7
-74 l4 -37 37 75 c20 41 37 80 37 87 0 7 9 13 21 13 16 0 19 -4 13 -17z m1846
-383 c5 8 10 11 11 5 0 -5 2 -20 3 -32 2 -13 -1 -23 -6 -23 -4 0 -9 -8 -9 -17
-1 -16 -2 -16 -6 0 -4 17 -6 17 -17 1 -12 -16 -13 -15 -19 5 -3 11 -1 21 4 21
6 0 9 6 8 13 -1 6 -1 19 0 27 1 13 2 13 11 0 9 -13 11 -13 20 0z m70 -29 c0
-22 5 -42 13 -44 6 -3 -4 -5 -23 -5 -19 0 -29 2 -22 5 15 6 16 63 1 63 -5 0
-7 5 -4 10 3 6 13 10 21 10 10 0 14 -12 14 -39z m80 29 c0 -5 -8 -10 -17 -11
-14 0 -13 -2 5 -9 12 -5 22 -14 22 -20 0 -6 4 -9 9 -6 5 3 7 15 4 26 -3 13 1
22 12 26 21 8 31 -3 39 -44 7 -39 -14 -53 -47 -32 -15 9 -22 10 -25 1 -6 -18
-40 -13 -52 8 -14 28 4 71 30 71 11 0 20 -4 20 -10z m138 -2 c25 -25 8 -78
-25 -78 -22 0 -37 44 -24 69 13 24 31 27 49 9z m62 -27 c0 -22 5 -42 13 -44 6
-3 -4 -5 -23 -5 -19 0 -29 2 -22 5 15 6 16 63 1 63 -5 0 -7 5 -4 10 3 6 13 10
21 10 10 0 14 -12 14 -39z m71 -6 c-9 -25 -19 -45 -23 -45 -11 0 -10 14 2 44
7 20 6 26 -5 26 -7 0 -17 5 -20 10 -4 6 8 10 28 10 l35 0 -17 -45z m77 33 c7
-7 12 -22 12 -35 0 -18 6 -23 26 -23 16 0 24 5 21 13 -2 6 -11 11 -21 9 -11
-2 -16 4 -16 23 0 20 5 25 25 25 28 0 35 -19 8 -21 -17 -1 -17 -2 -1 -6 9 -2
20 -13 23 -24 4 -13 15 -19 33 -19 26 1 26 1 8 15 -11 8 -14 15 -8 15 7 0 12
7 12 15 0 9 -6 12 -15 9 -8 -4 -15 -1 -15 6 0 6 10 10 23 8 15 -2 22 -10 22
-25 0 -12 4 -25 7 -28 4 -4 4 -13 1 -21 -6 -16 -49 -19 -58 -4 -4 6 -13 5 -25
-3 -16 -9 -24 -9 -40 0 -12 8 -21 9 -25 3 -11 -18 -35 -11 -46 14 -20 43 18
85 49 54z"/>
<path d="M2201 3358 c-14 -23 -14 -23 8 -4 22 20 25 26 13 26 -4 0 -13 -10
-21 -22z"/>
<path d="M3101 3377 c2 -1 12 -9 22 -16 15 -12 17 -12 11 3 -3 9 -13 16 -22
16 -8 0 -13 -1 -11 -3z"/>
<path d="M2079 3353 c-13 -16 -12 -17 4 -4 9 7 17 15 17 17 0 8 -8 3 -21 -13z"/>
<path d="M1876 3343 c-6 -14 -5 -15 5 -6 7 7 10 15 7 18 -3 3 -9 -2 -12 -12z"/>
<path d="M3559 3318 c4 -28 6 -29 9 -9 2 13 0 27 -5 32 -6 6 -7 -3 -4 -23z"/>
<path d="M1752 3315 c-2 -35 37 -117 58 -123 10 -3 8 3 -6 19 -22 25 -40 68
-47 109 -4 22 -4 21 -5 -5z"/>
<path d="M1890 3251 c0 -6 4 -13 10 -16 6 -3 7 1 4 9 -7 18 -14 21 -14 7z"/>
<path d="M3416 3243 c-6 -14 -5 -15 5 -6 7 7 10 15 7 18 -3 3 -9 -2 -12 -12z"/>
<path d="M1630 3242 c0 -5 12 -19 27 -33 l26 -24 -23 33 c-25 33 -30 38 -30
24z"/>
<path d="M3540 3242 c0 -6 -7 -18 -16 -27 -9 -9 -14 -18 -11 -21 3 -3 13 6 23
20 9 15 14 29 10 33 -3 3 -6 1 -6 -5z"/>
<path d="M3666 3228 c-9 -13 -34 -34 -56 -47 -22 -12 -40 -27 -40 -32 0 -14
27 3 80 49 25 22 42 43 38 47 -3 4 -13 -4 -22 -17z"/>
<path d="M1701 3174 c17 -21 49 -37 49 -25 0 5 -14 16 -31 25 -28 14 -30 14
-18 0z"/>
<path d="M1903 3152 c-8 -5 -2 -13 18 -24 l29 -17 -16 25 c-9 13 -17 24 -18
24 0 0 -6 -4 -13 -8z"/>
<path d="M3385 3134 l-16 -25 28 17 c15 10 29 19 31 20 2 1 -4 4 -12 7 -9 4
-21 -4 -31 -19z"/>
<path d="M2154 2895 c-11 -26 4 -45 35 -45 39 0 47 14 21 40 -24 24 -48 26
-56 5z"/>
<path d="M3157 2892 c-25 -28 -21 -34 21 -30 29 2 37 7 37 23 0 27 -36 31 -58
7z"/>
<path d="M1255 2852 c-33 -22 -69 -49 -79 -61 l-19 -21 42 0 c38 0 42 -2 36
-21 -6 -19 -2 -18 55 11 39 19 90 35 140 42 73 11 82 10 137 -12 32 -13 69
-36 82 -52 22 -27 22 -30 7 -47 -9 -10 -16 -21 -16 -24 0 -11 35 -8 47 4 7 7
17 -1 34 -28 18 -28 25 -34 27 -21 6 32 -44 124 -94 172 -75 71 -119 89 -238
93 l-101 4 -60 -39z"/>
<path d="M3150 2838 c0 -14 28 -20 46 -10 14 8 11 10 -15 14 -17 2 -31 1 -31
-4z"/>
<path d="M1913 2832 c-8 -5 -7 -14 5 -29 22 -27 38 -30 84 -14 21 7 42 10 47
6 6 -3 15 3 20 14 15 28 14 33 -6 22 -9 -5 -26 -5 -37 -1 -27 10 -98 11 -113
2z"/>
<path d="M2175 2830 c-11 -5 -15 -9 -8 -9 6 -1 18 -4 26 -7 8 -3 17 2 20 10 7
18 -7 20 -38 6z"/>
<path d="M3291 2817 c7 -17 17 -23 29 -20 10 3 28 -1 41 -7 19 -11 24 -9 40
11 10 13 19 26 19 29 0 10 -63 9 -81 -1 -13 -6 -25 -6 -39 1 -18 10 -19 9 -9
-13z"/>
<path d="M1888 2750 c-10 -6 -14 -18 -11 -30 7 -25 73 -30 73 -5 0 8 -5 15
-11 15 -7 0 -17 7 -23 15 -8 10 -16 11 -28 5z"/>
<path d="M3404 2745 c-4 -8 -12 -15 -20 -15 -8 0 -14 -7 -14 -15 0 -24 66 -20
73 4 8 32 -28 56 -39 26z"/>
<path d="M1862 2631 c4 -20 54 -27 75 -9 14 11 13 8 -1 -14 -19 -29 -40 -36
-51 -18 -11 17 -25 11 -25 -11 0 -19 4 -21 33 -15 94 20 96 20 103 -8 8 -32
24 -34 24 -3 0 38 -57 84 -113 90 -41 4 -48 2 -45 -12z"/>
<path d="M3400 2643 c-22 -3 -47 -16 -67 -36 -32 -30 -43 -57 -23 -57 6 0 10
9 10 19 0 17 4 18 38 9 20 -5 52 -12 70 -15 28 -5 32 -2 32 17 0 17 -4 21 -17
15 -29 -11 -35 -11 -40 3 -3 7 5 12 20 12 14 0 28 7 31 16 8 22 8 24 -6 22 -7
0 -29 -3 -48 -5z"/>
<path d="M1830 2504 c0 -31 16 -49 32 -37 21 17 132 20 152 4 14 -12 16 -10
16 13 0 25 -2 26 -62 26 -35 0 -80 3 -100 6 -33 6 -38 4 -38 -12z"/>
<path d="M3291 2489 c0 -34 0 -34 16 -12 12 18 19 21 35 12 11 -6 37 -9 58 -8
22 2 45 -3 55 -11 14 -12 18 -12 26 1 5 8 9 22 9 31 0 16 -9 17 -82 12 -46 -4
-85 -8 -87 -10 -2 -2 -10 1 -18 7 -10 9 -13 5 -12 -22z"/>
<path d="M1928 2463 c-33 -8 -18 -19 22 -15 22 2 37 8 34 13 -5 9 -26 10 -56
2z"/>
<path d="M3334 2460 c-5 -5 -7 -33 -4 -62 4 -45 8 -53 30 -58 20 -5 22 -7 8
-12 -27 -11 -50 15 -55 65 -3 26 -10 47 -15 47 -14 0 -1 -66 22 -110 22 -43
56 -75 93 -89 37 -14 163 -14 188 0 20 10 20 11 3 30 -9 10 -23 19 -29 19 -7
0 -24 9 -38 20 -14 11 -34 20 -45 20 -26 0 -60 43 -68 87 -5 24 -14 37 -31 44
-31 12 -47 11 -59 -1z"/>
<path d="M1810 2399 c0 -50 -4 -64 -25 -84 -13 -14 -30 -25 -38 -25 -8 0 -22
-9 -31 -19 -17 -19 -17 -20 3 -30 28 -15 155 -14 194 3 70 29 130 137 96 171
-9 9 -40 15 -82 16 -37 1 -78 8 -92 15 l-25 13 0 -60z m42 -29 c-9 -27 -19
-50 -23 -50 -4 0 0 23 9 50 9 28 19 50 23 50 4 0 0 -22 -9 -50z"/>
<path d="M3497 2453 c-5 -7 -19 -13 -33 -13 -32 0 -33 -39 -1 -76 37 -43 53
-29 47 41 -3 36 -8 55 -13 48z"/>
<path d="M2015 2430 c-3 -5 -1 -10 4 -10 6 0 11 5 11 10 0 6 -2 10 -4 10 -3 0
-8 -4 -11 -10z"/>
<path d="M2197 1739 c7 -7 15 -10 18 -7 3 3 -2 9 -12 12 -14 6 -15 5 -6 -5z"/>
<path d="M2280 1651 c0 -6 4 -13 10 -16 6 -3 7 1 4 9 -7 18 -14 21 -14 7z"/>
<path d="M4263 1479 c-50 -12 -59 -22 -67 -74 l-6 -40 12 39 c7 21 24 46 37
55 l24 16 -6 -35 c-4 -19 -20 -84 -36 -144 l-30 -108 46 7 c25 4 52 9 59 12
15 6 34 65 33 103 -1 16 -5 8 -11 -20 -11 -48 -32 -80 -55 -80 -7 0 -13 8 -13
18 0 17 50 206 65 245 8 19 8 19 -52 6z"/>
<path d="M2665 1461 c-3 -5 -2 -12 3 -15 5 -3 9 1 9 9 0 17 -3 19 -12 6z"/>
<path d="M4041 1430 c-8 -4 -10 -13 -7 -19 4 -6 0 -59 -10 -117 -16 -98 -16
-106 -1 -122 11 -11 20 -13 27 -6 12 12 23 261 12 268 -4 2 -14 1 -21 -4z"/>
<path d="M3873 1398 c-22 -29 -24 -38 -7 -31 16 6 16 0 9 -73 -14 -134 -13
-159 9 -159 17 0 20 9 24 85 10 161 8 184 -9 188 -9 1 -20 -3 -26 -10z"/>
<path d="M3794 1378 c-5 -7 -7 -21 -5 -32 3 -17 -14 -163 -25 -214 -4 -20 -1
-23 18 -20 21 3 24 11 36 108 7 58 11 118 10 134 -3 32 -21 45 -34 24z"/>
<path d="M3605 1351 c-3 -6 -3 -16 0 -21 4 -6 1 -45 -5 -87 -7 -43 -12 -92
-12 -111 0 -41 15 -60 34 -44 17 14 19 263 1 269 -6 2 -14 -1 -18 -6z"/>
<path d="M3435 1310 c-18 -20 -18 -21 0 -14 17 7 18 2 12 -78 -4 -47 -9 -98
-12 -114 -7 -38 9 -63 30 -49 24 15 28 268 4 273 -8 1 -24 -7 -34 -18z"/>
<path d="M3350 1295 c-18 -19 -20 -24 -7 -19 15 5 17 0 16 -42 0 -27 -4 -83
-8 -124 -4 -41 -7 -76 -5 -78 1 -2 11 1 22 7 16 8 20 26 27 103 10 118 9 149
-8 165 -11 11 -17 9 -37 -12z"/>
<path d="M3277 1294 c-4 -4 -4 -16 -2 -28 3 -12 -1 -72 -8 -134 -13 -111 -13
-113 8 -110 18 3 21 14 31 108 7 58 9 120 7 138 -5 30 -21 41 -36 26z"/>
<path d="M3130 1269 c-42 -9 -85 -54 -99 -106 -12 -42 -14 -125 -5 -160 9 -33
41 -29 59 7 13 24 13 29 1 24 -34 -13 -26 149 9 203 9 13 20 23 25 23 13 0 13
-23 -1 -129 -8 -64 -8 -93 0 -115 10 -24 14 -26 26 -16 9 7 13 21 10 31 -4 10
-1 63 5 118 15 126 14 129 -30 120z"/>
<path d="M2941 1209 c-16 -45 -14 -48 9 -14 22 33 25 45 11 45 -5 0 -14 -14
-20 -31z"/>
<path d="M2886 1222 c-3 -5 -8 -69 -10 -141 -4 -123 -3 -131 15 -131 13 0 19
9 23 33 9 60 13 182 7 211 -6 30 -25 44 -35 28z"/>
<path d="M2769 1203 c-14 -3 -19 -28 -29 -136 -15 -172 -25 -200 -70 -207 -27
-4 -30 -7 -15 -11 38 -10 82 9 98 43 13 28 44 307 35 313 -2 1 -10 0 -19 -2z"/>
<path d="M2295 1185 c-5 -2 -26 -6 -46 -9 l-36 -6 -7 -138 c-4 -75 -10 -152
-13 -171 l-6 -34 49 8 c27 4 56 11 65 16 25 13 41 61 37 115 -3 43 -6 49 -27
52 l-23 4 27 28 c34 35 45 99 20 123 -16 17 -21 18 -40 12z m5 -69 c0 -38 -6
-61 -19 -77 -11 -13 -22 -21 -26 -17 -4 4 -4 39 0 77 6 61 10 71 26 71 16 0
19 -8 19 -54z m-10 -121 c9 -10 11 -32 7 -66 -7 -54 -20 -79 -43 -79 -16 0
-18 38 -8 114 7 48 22 58 44 31z"/>
<path d="M2665 1182 c-5 -4 -10 -25 -11 -47 0 -22 -4 -76 -9 -120 -6 -67 -5
-83 8 -93 22 -19 51 11 35 37 -8 13 -8 43 0 112 9 73 9 96 -1 106 -6 7 -16 9
-22 5z"/>
<path d="M2474 1141 c-41 -25 -64 -85 -64 -167 0 -69 12 -104 35 -104 21 0 41
40 25 50 -35 22 -12 209 26 224 16 6 16 -4 10 -103 -4 -68 -2 -119 4 -137 18
-48 31 -13 35 96 2 57 7 116 10 132 6 26 4 28 -22 28 -15 0 -42 -9 -59 -19z"/>
<path d="M1925 1044 c-16 -16 -16 -18 0 -27 15 -8 16 -21 10 -111 -6 -89 -5
-104 10 -116 15 -12 19 -12 31 5 9 12 10 22 4 30 -5 6 -11 60 -12 120 -3 113
-11 131 -43 99z"/>
<path d="M1428 1032 c-15 -3 -18 -16 -19 -90 -2 -154 2 -217 16 -231 7 -7 17
-12 22 -10 4 2 6 78 3 169 -5 151 -7 165 -22 162z"/>
<path d="M1850 1038 c0 -2 -3 -63 -5 -135 -5 -125 -4 -133 13 -133 17 0 20 12
25 104 7 116 2 166 -19 166 -8 0 -14 -1 -14 -2z"/>
<path d="M1715 1012 c-11 -7 -12 -17 -16 -147 -3 -81 13 -137 32 -118 13 13
17 273 4 273 -5 0 -15 -4 -20 -8z"/>
<path d="M1650 983 c-42 -38 -61 -136 -39 -203 16 -51 44 -65 58 -29 5 16 4
28 -5 37 -22 21 -18 140 5 185 10 20 17 37 15 37 -2 0 -17 -12 -34 -27z"/>
<path d="M1487 963 c-13 -16 -14 -19 0 -32 12 -11 14 -33 11 -106 -2 -55 -9
-100 -17 -111 -7 -11 -2 -7 12 9 14 15 31 44 36 65 20 70 9 192 -17 192 -5 0
-16 -8 -25 -17z"/>
<path d="M918 939 c-14 -8 -18 -23 -18 -68 0 -44 -5 -65 -20 -82 l-19 -24 -1
83 c0 81 -1 83 -22 80 -23 -3 -23 -5 -26 -170 l-2 -168 25 0 c25 0 25 1 25 86
0 83 1 85 23 82 20 -3 22 -8 22 -73 l0 -70 35 -3 c28 -3 33 -1 23 9 -7 7 -13
38 -13 69 0 59 -11 80 -44 80 -20 0 -20 0 1 15 22 15 27 33 37 123 4 44 2 48
-26 31z"/>
<path d="M1322 933 c-18 -32 -16 -51 4 -31 9 8 14 24 12 34 -4 18 -5 17 -16
-3z"/>
<path d="M1258 933 c-2 -5 -2 -65 0 -135 l3 -128 25 0 c24 0 24 0 24 104 0
107 -12 166 -35 166 -8 0 -15 -3 -17 -7z"/>
<path d="M1138 912 c-15 -3 -18 -16 -20 -90 -2 -112 0 -140 13 -164 9 -17 13
-18 23 -7 8 10 10 52 6 139 -4 113 -7 125 -22 122z"/>
<path d="M1038 893 c-2 -5 -3 -61 -3 -127 0 -104 2 -120 18 -130 15 -9 21 -7
33 8 17 24 18 37 2 33 -10 -1 -13 23 -13 98 0 55 -4 106 -8 113 -9 13 -24 16
-29 5z"/>
<path d="M3491 773 c-39 -46 -58 -42 -26 4 8 12 11 24 6 27 -22 14 -63 -70
-76 -156 -18 -117 68 -150 119 -45 37 75 53 217 26 217 -5 0 -27 -21 -49 -47z"/>
<path d="M3018 600 c-10 -21 -13 -36 -6 -39 17 -6 30 16 26 45 l-4 29 -16 -35z"/>
<path d="M2722 558 c-18 -23 -39 -72 -47 -108 -7 -31 -6 -33 8 -21 19 15 61
86 71 119 8 25 -14 32 -32 10z"/>
<path d="M4480 130 c0 -5 5 -10 11 -10 5 0 7 5 4 10 -3 6 -8 10 -11 10 -2 0
-4 -4 -4 -10z"/>
<path d="M4407 103 c-3 -5 -2 -15 2 -22 7 -10 10 -10 16 -1 4 6 3 16 -3 22 -5
5 -12 6 -15 1z"/>
<path d="M4476 91 c-4 -5 -2 -12 3 -15 5 -4 12 -2 15 3 4 5 2 12 -3 15 -5 4
-12 2 -15 -3z"/>
<path d="M4545 130 c-10 -16 4 -62 15 -55 13 8 13 52 1 60 -5 3 -13 0 -16 -5z"/>
<path d="M4755 130 c-10 -16 4 -62 15 -55 13 8 13 52 1 60 -5 3 -13 0 -16 -5z"/>
</g>
</svg>
